<svg xmlns="http://www.w3.org/2000/svg" version="1.1" viewBox="-5.0 -10.0 110.0 135.0">
 <path d="m22 31c7.2812 0 10.969-1.0586 14.551-2.0781 3.4609-0.98828 6.7305-1.9219 13.449-1.9219s9.9883 0.92969 13.449 1.9219c3.5703 1.0195 7.2695 2.0781 14.551 2.0781 1.1016 0 2-0.89844 2-2s-0.89844-2-2-2c-6.7188 0-9.9883-0.92969-13.449-1.9219-3.5703-1.0195-7.2695-2.0781-14.551-2.0781s-10.969 1.0586-14.551 2.0781c-3.4609 0.98828-6.7305 1.9219-13.449 1.9219-1.1016 0-2 0.89844-2 2s0.89844 2 2 2z"/>
 <path d="m49 76.73c0.46094 0.26953 1 0.33984 1.5195 0.19922 0.51953-0.14063 0.94922-0.46875 1.2109-0.92969 0.26953-0.46094 0.33984-1 0.19922-1.5195-0.14063-0.51953-0.46875-0.94922-0.92969-1.2109-0.30078-0.17969-0.64844-0.26953-1-0.26953-0.71875 0-1.3789 0.37891-1.7383 1-0.26953 0.46094-0.33984 1-0.19922 1.5195s0.46875 0.94922 0.92969 1.2109z"/>
 <path d="m69 76.73c0.46094 0.26953 1 0.33984 1.5195 0.19922 0.51953-0.14063 0.94922-0.46875 1.2109-0.92969 0.26953-0.46094 0.33984-1 0.19922-1.5195-0.14063-0.51953-0.46875-0.94922-0.92969-1.2109-0.30078-0.17969-0.64844-0.26953-1-0.26953-0.71875 0-1.3789 0.37891-1.7383 1-0.26953 0.46094-0.33984 1-0.19922 1.5195s0.46875 0.94922 0.92969 1.2109z"/>
 <path d="m59 63.73c0.46094 0.26953 1 0.33984 1.5195 0.19922 0.51953-0.14063 0.94922-0.46875 1.2109-0.92969 0.26953-0.46094 0.33984-1 0.19922-1.5195-0.14063-0.51953-0.46875-0.94922-0.92969-1.2109-0.30078-0.17969-0.64844-0.26953-1-0.26953-0.71875 0-1.3789 0.37891-1.7383 1-0.26953 0.46094-0.33984 1-0.19922 1.5195s0.46875 0.94922 0.92969 1.2109z"/>
 <path d="m39 63.73c0.46094 0.26953 1 0.33984 1.5195 0.19922 0.51953-0.14063 0.94922-0.46875 1.2109-0.92969 0.26953-0.46094 0.33984-1 0.19922-1.5195-0.14063-0.51953-0.46875-0.94922-0.92969-1.2109-0.30078-0.17969-0.64844-0.26953-1-0.26953-0.71875 0-1.3789 0.37891-1.7383 1-0.26953 0.46094-0.33984 1-0.19922 1.5195s0.46875 0.94922 0.92969 1.2109z"/>
 <path d="m29 76.73c0.46094 0.26953 1 0.33984 1.5195 0.19922 0.51953-0.14063 0.94922-0.46875 1.2109-0.92969 0.26953-0.46094 0.33984-1 0.19922-1.5195-0.14063-0.51953-0.46875-0.94922-0.92969-1.2109-0.30078-0.17969-0.64844-0.26953-1-0.26953-0.71875 0-1.3789 0.37891-1.7383 1-0.26953 0.46094-0.33984 1-0.19922 1.5195s0.46875 0.94922 0.92969 1.2109z"/>
 <path d="m22 51c4.2383 0 6.3984-1.8516 8.3008-3.4805 1.7109-1.4609 2.9414-2.5195 5.6992-2.5195 2.7617 0 3.9883 1.0586 5.6992 2.5195 1.8984 1.6289 4.0586 3.4805 8.3008 3.4805 4.2383 0 6.3984-1.8516 8.3008-3.4805 1.7109-1.4609 2.9414-2.5195 5.6992-2.5195 2.7617 0 3.9883 1.0586 5.6992 2.5195 1.8984 1.6289 4.0586 3.4805 8.3008 3.4805 1.1016 0 2-0.89844 2-2s-0.89844-2-2-2c-2.7617 0-3.9883-1.0586-5.6992-2.5195-1.8984-1.6289-4.0586-3.4805-8.3008-3.4805-4.2383 0-6.3906 1.8516-8.3008 3.4805-1.7109 1.4609-2.9414 2.5195-5.6992 2.5195-2.7617 0-4-1.0586-5.6992-2.5195-1.8984-1.6289-4.0586-3.4805-8.3008-3.4805-4.2383 0-6.3984 1.8516-8.3008 3.4805-1.7109 1.4609-2.9414 2.5195-5.6992 2.5195-1.1016 0-2 0.89844-2 2s0.89844 2 2 2z"/>
 </svg>